<?xml version="1.0" encoding="utf-8"?>
<svg id="svg" version="1.1" xmlns="http://www.w3.org/2000/svg" width="400" height="400" viewBox="0, 0, 400,400">
  <g id="svgg" transform="matrix(1, 0, 0, 1, 2.294455, -6.883365)">
    <path id="path0" d="M344.658 64.414 C 334.536 68.259,334.655 81.892,344.843 85.616 C 349.805 87.429,358.400 83.909,358.400 80.062 C 358.400 79.808,358.560 79.600,358.756 79.600 C 359.189 79.600,359.666 77.186,359.666 75.000 C 359.666 72.814,359.189 70.400,358.756 70.400 C 358.560 70.400,358.400 70.162,358.400 69.872 C 358.400 66.022,349.612 62.532,344.658 64.414 M256.200 189.323 C 251.801 190.919,248.126 195.372,247.236 200.186 C 246.722 202.971,246.608 284.234,247.119 284.550 C 247.446 284.752,248.727 283.720,260.946 273.400 C 264.854 270.100,269.435 266.276,271.126 264.901 L 274.200 262.403 309.000 262.397 C 347.202 262.391,345.737 262.479,349.665 259.958 C 351.957 258.488,353.259 257.015,354.722 254.243 L 355.800 252.200 355.800 225.400 L 355.800 198.600 354.722 196.557 C 352.660 192.649,350.128 190.463,346.140 189.147 C 343.984 188.436,341.830 188.401,301.238 188.426 L 258.600 188.453 256.200 189.323 M53.200 290.400 C 52.870 290.613,52.193 290.791,51.695 290.794 C 51.197 290.797,50.477 290.959,50.095 291.153 C 49.713 291.348,48.860 291.753,48.200 292.053 C 46.737 292.720,42.768 296.623,42.154 298.000 C 40.866 300.883,40.826 301.013,40.123 304.548 C 39.252 308.932,43.531 316.402,48.300 318.822 C 64.098 326.841,78.696 306.580,65.829 294.494 C 62.243 291.125,55.473 288.931,53.200 290.400 M201.311 345.364 C 198.280 346.467,196.404 349.113,196.401 352.288 C 196.400 354.911,198.209 358.400,199.571 358.400 C 199.807 358.400,200.000 358.546,200.000 358.724 C 200.000 360.560,206.341 359.867,208.527 357.793 C 214.300 352.318,208.701 342.676,201.311 345.364 " stroke="none" fill-rule="evenodd" style="fill-rule: evenodd; fill: rgb(61, 216, 168);"/>
    <path id="path1" d="M115.900 91.900 C 121.015 91.963,129.385 91.963,134.500 91.900 C 139.615 91.836,135.430 91.785,125.200 91.785 C 114.970 91.785,110.785 91.836,115.900 91.900 M216.300 98.700 C 227.795 98.759,246.605 98.759,258.100 98.700 C 269.595 98.641,260.190 98.593,237.200 98.593 C 214.210 98.593,204.805 98.641,216.300 98.700 M57.748 100.756 C 54.926 101.719,52.051 103.865,50.497 106.169 C 47.929 109.974,47.966 109.466,48.089 139.040 L 48.200 165.800 49.235 168.000 C 51.026 171.811,54.685 174.777,59.046 175.955 C 60.195 176.266,71.183 176.400,95.391 176.400 L 130.089 176.400 132.144 178.095 C 133.275 179.026,134.290 179.892,134.400 180.017 C 134.559 180.198,141.582 186.075,147.545 191.017 C 148.064 191.448,148.696 191.980,148.948 192.200 C 149.201 192.420,151.071 194.008,153.104 195.729 L 156.800 198.857 156.800 155.775 C 156.800 125.415,156.669 112.207,156.355 111.046 C 154.879 105.583,151.135 101.814,145.800 100.422 C 142.674 99.606,60.202 99.919,57.748 100.756 M164.994 160.400 C 164.994 186.910,165.041 197.755,165.100 184.500 C 165.158 171.245,165.158 149.555,165.100 136.300 C 165.041 123.045,164.994 133.890,164.994 160.400 M97.325 114.966 C 99.227 116.729,99.238 119.053,97.354 120.937 L 96.291 122.000 78.915 122.000 L 61.538 122.000 60.369 120.831 C 58.804 119.266,58.750 116.996,60.236 115.231 L 61.271 114.000 78.777 114.000 L 96.283 114.000 97.325 114.966 M142.931 133.745 C 146.014 135.034,146.494 138.752,143.853 140.891 C 143.057 141.536,140.260 141.583,102.331 141.591 L 61.662 141.600 60.431 140.369 C 58.328 138.267,58.801 135.186,61.438 133.811 C 63.095 132.947,140.870 132.884,142.931 133.745 M144.240 154.160 C 145.297 155.217,145.600 155.850,145.600 157.000 C 145.600 158.150,145.297 158.783,144.240 159.840 L 142.880 161.200 102.271 161.200 L 61.662 161.200 60.431 159.969 C 58.413 157.951,58.738 155.171,61.189 153.482 C 62.105 152.850,65.167 152.800,102.529 152.800 L 142.880 152.800 144.240 154.160 M301.378 167.600 C 301.378 174.530,301.433 177.365,301.499 173.900 C 301.566 170.435,301.566 164.765,301.499 161.300 C 301.433 157.835,301.378 160.670,301.378 167.600 M133.600 266.400 L 133.600 293.600 160.800 293.600 L 188.000 293.600 188.000 266.400 L 188.000 239.200 160.800 239.200 L 133.600 239.200 133.600 266.400 " stroke="none" fill-rule="evenodd" style="fill-rule: evenodd; fill: rgb(251, 221, 71);"/>
    <path id="path2" d="M106.400 79.366 L 106.400 91.532 126.900 91.705 C 149.174 91.894,147.962 91.776,153.062 94.255 C 158.892 97.088,163.834 104.062,164.814 110.839 C 165.457 115.289,165.308 207.768,164.655 209.331 C 163.154 212.923,159.869 212.779,155.800 208.943 C 155.104 208.287,151.752 205.470,137.628 193.670 C 135.963 192.279,134.148 190.749,133.596 190.270 C 133.044 189.792,131.604 188.590,130.396 187.600 C 129.188 186.610,127.851 185.485,127.425 185.100 C 126.729 184.472,125.605 184.400,116.525 184.400 L 106.400 184.400 106.400 252.600 L 106.400 320.800 203.803 320.800 L 301.206 320.800 301.103 295.700 L 301.000 270.600 289.027 270.494 C 282.442 270.436,276.952 270.528,276.827 270.699 C 276.702 270.871,275.610 271.816,274.400 272.800 C 273.190 273.784,272.110 274.684,272.000 274.800 C 271.890 274.916,269.640 276.809,267.000 279.006 C 264.360 281.203,262.110 283.092,262.000 283.205 C 261.890 283.319,260.810 284.216,259.600 285.200 C 258.390 286.184,257.310 287.084,257.200 287.200 C 257.090 287.316,256.010 288.218,254.800 289.205 C 253.590 290.192,251.970 291.569,251.200 292.266 C 245.613 297.319,243.340 298.507,241.289 297.446 C 238.614 296.063,238.800 299.811,238.800 247.391 C 238.800 196.392,238.725 198.290,240.943 193.200 C 243.264 187.872,248.334 183.425,254.445 181.358 L 257.277 180.400 279.238 180.400 L 301.200 180.400 301.200 124.043 C 301.200 73.021,301.140 67.663,300.567 67.443 C 300.219 67.309,256.389 67.200,203.167 67.200 L 106.400 67.200 106.400 79.366 M280.269 91.082 C 282.875 92.790,282.724 96.739,280.000 98.099 C 278.081 99.058,196.918 99.194,194.639 98.242 C 191.759 97.039,191.068 93.794,193.231 91.631 L 194.462 90.400 236.845 90.400 C 276.104 90.400,279.305 90.450,280.269 91.082 M280.780 111.100 C 282.539 112.722,282.612 115.279,280.945 116.945 L 279.891 118.000 237.106 118.000 L 194.321 118.000 193.160 116.758 C 191.524 115.006,191.551 112.911,193.231 111.231 L 194.462 110.000 237.024 110.000 L 279.587 110.000 280.780 111.100 M280.901 130.610 C 282.643 132.352,282.643 134.848,280.901 136.590 L 279.891 137.600 237.176 137.600 L 194.462 137.600 193.231 136.369 C 191.551 134.689,191.524 132.594,193.160 130.842 L 194.321 129.600 237.106 129.600 L 279.891 129.600 280.901 130.610 M280.945 150.255 C 282.612 151.921,282.539 154.478,280.780 156.100 L 279.587 157.200 237.024 157.200 L 194.462 157.200 193.231 155.969 C 191.551 154.289,191.524 152.194,193.160 150.442 L 194.321 149.200 237.106 149.200 L 279.891 149.200 280.945 150.255 M194.653 231.909 C 195.122 232.289,195.707 232.993,195.953 233.474 C 196.586 234.711,196.586 298.089,195.953 299.326 C 194.727 301.724,196.942 301.581,160.860 301.591 L 127.921 301.600 126.760 300.358 L 125.600 299.115 125.600 266.400 L 125.600 233.685 126.760 232.442 L 127.921 231.200 160.860 231.209 C 191.466 231.217,193.860 231.267,194.653 231.909 " stroke="none" fill-rule="evenodd" fill="#e3f3fb" style="fill-rule: evenodd;"/>
    <path id="path3" d="M125.600 16.400 C 125.600 16.620,124.981 16.800,124.224 16.800 C 123.467 16.800,122.736 16.980,122.600 17.200 C 122.464 17.420,122.003 17.600,121.576 17.600 C 121.149 17.600,120.800 17.780,120.800 18.000 C 120.800 18.220,120.260 18.400,119.600 18.400 C 118.940 18.400,118.400 18.580,118.400 18.800 C 118.400 19.020,118.040 19.200,117.600 19.200 C 117.160 19.200,116.800 19.380,116.800 19.600 C 116.800 19.820,116.440 20.000,116.000 20.000 C 115.560 20.000,115.200 20.150,115.200 20.332 C 115.200 20.515,114.705 20.919,114.100 21.230 C 113.495 21.540,112.709 22.111,112.353 22.497 C 111.997 22.884,111.539 23.200,111.335 23.200 C 110.846 23.200,105.200 28.644,105.200 29.116 C 105.200 29.317,104.660 30.046,104.000 30.737 C 103.340 31.428,102.800 32.264,102.800 32.596 C 102.800 32.928,102.620 33.200,102.400 33.200 C 102.180 33.200,102.000 33.560,102.000 34.000 C 102.000 34.440,101.820 34.800,101.600 34.800 C 101.380 34.800,101.200 35.160,101.200 35.600 C 101.200 36.040,101.020 36.400,100.800 36.400 C 100.580 36.400,100.400 36.760,100.400 37.200 C 100.400 37.640,100.220 38.000,100.000 38.000 C 99.780 38.000,99.600 38.540,99.600 39.200 C 99.600 39.860,99.420 40.400,99.200 40.400 C 98.980 40.400,98.800 40.940,98.800 41.600 C 98.800 42.260,98.620 42.800,98.400 42.800 C 98.180 42.800,98.000 43.779,98.000 44.976 C 98.000 46.173,97.820 47.264,97.600 47.400 C 97.341 47.560,97.200 55.337,97.200 69.424 L 97.200 91.200 78.300 91.200 C 59.327 91.201,54.337 91.521,53.020 92.824 C 52.811 93.031,52.316 93.200,51.920 93.200 C 51.524 93.200,51.200 93.380,51.200 93.600 C 51.200 93.820,50.840 94.000,50.400 94.000 C 49.960 94.000,49.600 94.141,49.600 94.314 C 49.600 94.486,49.034 94.962,48.343 95.370 C 46.899 96.223,43.200 99.890,43.200 100.469 C 43.200 100.683,42.930 101.127,42.600 101.457 C 42.270 101.787,42.000 102.404,42.000 102.829 C 42.000 103.253,41.820 103.600,41.600 103.600 C 41.380 103.600,41.200 103.960,41.200 104.400 C 41.200 104.840,41.020 105.200,40.800 105.200 C 40.580 105.200,40.400 105.740,40.400 106.400 C 40.400 107.060,40.220 107.600,40.000 107.600 C 39.737 107.600,39.600 118.000,39.600 138.000 C 39.600 158.000,39.737 168.400,40.000 168.400 C 40.220 168.400,40.400 168.940,40.400 169.600 C 40.400 170.260,40.580 170.800,40.800 170.800 C 41.020 170.800,41.200 171.145,41.200 171.568 C 41.200 172.515,42.359 174.762,43.300 175.641 C 43.685 176.000,44.000 176.480,44.000 176.707 C 44.000 177.277,46.771 180.000,47.352 180.000 C 47.611 180.000,48.083 180.360,48.400 180.800 C 48.717 181.240,49.162 181.604,49.388 181.609 C 49.615 181.614,50.250 181.970,50.800 182.400 C 51.350 182.830,52.205 183.186,52.700 183.191 C 53.195 183.196,53.600 183.380,53.600 183.600 C 53.600 183.820,54.140 184.000,54.800 184.000 C 55.460 184.000,56.000 184.180,56.000 184.400 C 56.000 184.661,63.133 184.800,76.600 184.800 L 97.200 184.800 97.200 268.576 C 97.200 323.996,97.335 352.436,97.600 352.600 C 97.820 352.736,98.000 353.827,98.000 355.024 C 98.000 356.221,98.180 357.200,98.400 357.200 C 98.620 357.200,98.800 357.740,98.800 358.400 C 98.800 359.060,98.980 359.600,99.200 359.600 C 99.420 359.600,99.600 360.140,99.600 360.800 C 99.600 361.460,99.780 362.000,100.000 362.000 C 100.220 362.000,100.400 362.360,100.400 362.800 C 100.400 363.240,100.580 363.600,100.800 363.600 C 101.020 363.600,101.200 363.960,101.200 364.400 C 101.200 364.840,101.380 365.200,101.600 365.200 C 101.820 365.200,102.000 365.560,102.000 366.000 C 102.000 366.440,102.180 366.800,102.400 366.800 C 102.620 366.800,102.800 367.025,102.801 367.300 C 102.801 367.575,103.341 368.430,104.000 369.200 C 104.659 369.970,105.199 370.746,105.199 370.925 C 105.200 371.403,110.890 376.800,111.394 376.800 C 111.630 376.800,112.083 377.160,112.400 377.600 C 112.717 378.040,113.257 378.400,113.600 378.400 C 113.943 378.400,114.483 378.760,114.800 379.200 C 115.117 379.640,115.697 380.000,116.088 380.000 C 116.480 380.000,116.800 380.180,116.800 380.400 C 116.800 380.620,117.160 380.800,117.600 380.800 C 118.040 380.800,118.400 380.980,118.400 381.200 C 118.400 381.420,118.940 381.600,119.600 381.600 C 120.260 381.600,120.800 381.736,120.800 381.903 C 120.800 382.269,123.667 383.200,124.794 383.200 C 125.237 383.200,125.600 383.380,125.600 383.600 C 125.600 383.865,151.867 384.000,203.600 384.000 C 255.333 384.000,281.600 383.865,281.600 383.600 C 281.600 383.380,282.320 383.200,283.200 383.200 C 284.080 383.200,284.800 383.020,284.800 382.800 C 284.800 382.580,285.239 382.400,285.776 382.400 C 286.313 382.400,286.864 382.220,287.000 382.000 C 287.136 381.780,287.597 381.600,288.024 381.600 C 288.451 381.600,288.800 381.420,288.800 381.200 C 288.800 380.980,289.160 380.800,289.600 380.800 C 290.040 380.800,290.400 380.620,290.400 380.400 C 290.400 380.180,290.670 380.000,291.000 380.000 C 291.330 380.000,291.600 379.820,291.600 379.600 C 291.600 379.380,291.920 379.200,292.312 379.200 C 292.703 379.200,293.283 378.840,293.600 378.400 C 293.917 377.960,294.400 377.600,294.673 377.600 C 294.946 377.600,296.000 376.835,297.015 375.900 C 301.108 372.131,302.800 370.435,302.800 370.101 C 302.800 369.909,303.157 369.368,303.593 368.900 C 305.670 366.670,308.315 360.134,308.691 356.300 C 308.793 355.255,309.040 354.400,309.239 354.400 C 309.451 354.400,309.600 337.223,309.600 312.600 L 309.600 270.800 328.800 270.800 C 341.333 270.800,348.000 270.661,348.000 270.400 C 348.000 270.180,348.540 270.000,349.200 270.000 C 349.860 270.000,350.400 269.820,350.400 269.600 C 350.400 269.380,350.634 269.200,350.920 269.200 C 351.656 269.200,353.593 268.259,353.597 267.900 C 353.599 267.735,353.920 267.600,354.312 267.600 C 354.703 267.600,355.283 267.240,355.600 266.800 C 355.917 266.360,356.323 266.000,356.502 266.000 C 357.004 266.000,359.600 263.286,359.600 262.760 C 359.600 262.504,359.916 262.003,360.303 261.647 C 360.689 261.291,361.260 260.505,361.570 259.900 C 361.881 259.295,362.285 258.800,362.468 258.800 C 362.650 258.800,362.800 258.350,362.800 257.800 C 362.800 257.250,362.980 256.800,363.200 256.800 C 363.420 256.800,363.600 256.260,363.600 255.600 C 363.600 254.940,363.780 254.400,364.000 254.400 C 364.263 254.400,364.400 244.467,364.400 225.400 C 364.400 206.333,364.263 196.400,364.000 196.400 C 363.780 196.400,363.600 195.860,363.600 195.200 C 363.600 194.540,363.420 194.000,363.200 194.000 C 362.980 194.000,362.800 193.550,362.800 193.000 C 362.800 192.450,362.650 192.000,362.468 192.000 C 362.285 192.000,361.881 191.505,361.570 190.900 C 361.260 190.295,360.689 189.509,360.303 189.153 C 359.916 188.797,359.600 188.296,359.600 188.040 C 359.600 187.514,357.004 184.800,356.502 184.800 C 356.323 184.800,355.917 184.440,355.600 184.000 C 355.283 183.560,354.786 183.200,354.495 183.200 C 354.204 183.200,353.580 182.840,353.108 182.400 C 352.636 181.960,351.833 181.600,351.325 181.600 C 350.816 181.600,350.400 181.420,350.400 181.200 C 350.400 180.980,349.860 180.800,349.200 180.800 C 348.540 180.800,348.000 180.620,348.000 180.400 C 348.000 180.139,341.333 180.000,328.800 180.000 L 309.600 180.000 309.600 112.800 C 309.600 73.052,309.452 45.600,309.239 45.600 C 309.040 45.600,308.793 44.745,308.691 43.700 C 308.331 40.029,305.598 33.141,303.781 31.323 C 303.461 31.004,303.200 30.580,303.200 30.380 C 303.200 29.679,295.422 22.400,294.673 22.400 C 294.400 22.400,293.917 22.040,293.600 21.600 C 293.283 21.160,292.703 20.800,292.312 20.800 C 291.920 20.800,291.600 20.620,291.600 20.400 C 291.600 20.180,291.330 20.000,291.000 20.000 C 290.670 20.000,290.400 19.820,290.400 19.600 C 290.400 19.380,290.040 19.200,289.600 19.200 C 289.160 19.200,288.800 19.020,288.800 18.800 C 288.800 18.580,288.451 18.400,288.024 18.400 C 287.597 18.400,287.136 18.220,287.000 18.000 C 286.864 17.780,286.313 17.600,285.776 17.600 C 285.239 17.600,284.800 17.420,284.800 17.200 C 284.800 16.980,284.080 16.800,283.200 16.800 C 282.320 16.800,281.600 16.620,281.600 16.400 C 281.600 16.135,255.333 16.000,203.600 16.000 C 151.867 16.000,125.600 16.135,125.600 16.400 M280.493 25.173 C 293.285 28.444,300.635 38.265,301.096 52.700 L 301.304 59.200 203.599 59.200 L 105.895 59.200 106.097 52.900 C 106.563 38.387,114.300 28.129,127.123 25.019 C 131.292 24.008,276.509 24.154,280.493 25.173 M50.000 40.000 C 50.000 40.220,49.796 40.400,49.547 40.400 C 46.945 40.400,46.232 48.201,48.615 50.585 C 50.688 52.657,56.077 52.643,58.160 50.560 C 60.362 48.358,60.362 43.242,58.160 41.040 C 56.703 39.583,50.000 38.729,50.000 40.000 M189.311 40.709 C 187.305 42.268,187.308 44.492,189.320 46.700 C 190.608 48.115,215.956 48.111,217.725 46.696 C 219.508 45.269,219.668 42.807,218.081 41.219 L 216.862 40.000 203.531 40.009 C 191.518 40.017,190.112 40.086,189.311 40.709 M342.600 55.600 C 342.464 55.820,341.913 56.000,341.376 56.000 C 340.839 56.000,340.400 56.180,340.400 56.400 C 340.400 56.620,340.040 56.800,339.600 56.800 C 339.160 56.800,338.800 56.980,338.800 57.200 C 338.800 57.420,338.440 57.600,338.000 57.600 C 337.560 57.600,337.200 57.768,337.200 57.973 C 337.200 58.178,336.832 58.463,336.383 58.605 C 335.445 58.903,332.400 61.690,332.400 62.250 C 332.400 62.455,332.040 62.883,331.600 63.200 C 331.160 63.517,330.800 64.097,330.800 64.488 C 330.800 64.880,330.620 65.200,330.400 65.200 C 330.180 65.200,330.000 65.560,330.000 66.000 C 330.000 66.440,329.820 66.800,329.600 66.800 C 329.380 66.800,329.200 67.340,329.200 68.000 C 329.200 68.660,329.020 69.200,328.800 69.200 C 328.552 69.200,328.400 71.400,328.400 75.000 C 328.400 78.600,328.552 80.800,328.800 80.800 C 329.020 80.800,329.200 81.340,329.200 82.000 C 329.200 82.660,329.380 83.200,329.600 83.200 C 329.820 83.200,330.000 83.560,330.000 84.000 C 330.000 84.440,330.180 84.800,330.400 84.800 C 330.620 84.800,330.800 85.120,330.800 85.512 C 330.800 85.903,331.160 86.483,331.600 86.800 C 332.040 87.117,332.400 87.545,332.400 87.750 C 332.400 88.310,335.445 91.097,336.383 91.395 C 336.832 91.537,337.200 91.822,337.200 92.027 C 337.200 92.232,337.560 92.400,338.000 92.400 C 338.440 92.400,338.800 92.580,338.800 92.800 C 338.800 93.020,339.160 93.200,339.600 93.200 C 340.040 93.200,340.400 93.380,340.400 93.600 C 340.400 93.820,340.839 94.000,341.376 94.000 C 341.913 94.000,342.464 94.180,342.600 94.400 C 342.746 94.637,345.204 94.800,348.624 94.800 C 352.208 94.800,354.400 94.648,354.400 94.400 C 354.400 94.180,354.940 94.000,355.600 94.000 C 356.260 94.000,356.800 93.820,356.800 93.600 C 356.800 93.380,357.070 93.200,357.400 93.200 C 357.730 93.200,358.000 93.020,358.000 92.800 C 358.000 92.580,358.360 92.400,358.800 92.400 C 359.240 92.400,359.600 92.232,359.600 92.027 C 359.600 91.822,359.968 91.537,360.417 91.395 C 361.355 91.097,364.400 88.310,364.400 87.750 C 364.400 87.545,364.760 87.117,365.200 86.800 C 365.640 86.483,366.000 85.903,366.000 85.512 C 366.000 85.120,366.180 84.800,366.400 84.800 C 366.620 84.800,366.800 84.440,366.800 84.000 C 366.800 83.560,366.980 83.200,367.200 83.200 C 367.420 83.200,367.600 82.660,367.600 82.000 C 367.600 81.340,367.780 80.800,368.000 80.800 C 368.248 80.800,368.400 78.600,368.400 75.000 C 368.400 71.400,368.248 69.200,368.000 69.200 C 367.780 69.200,367.600 68.660,367.600 68.000 C 367.600 67.340,367.420 66.800,367.200 66.800 C 366.980 66.800,366.800 66.440,366.800 66.000 C 366.800 65.560,366.620 65.200,366.400 65.200 C 366.180 65.200,366.000 64.880,366.000 64.488 C 366.000 64.097,365.640 63.517,365.200 63.200 C 364.760 62.883,364.400 62.455,364.400 62.250 C 364.400 61.690,361.355 58.903,360.417 58.605 C 359.968 58.463,359.600 58.178,359.600 57.973 C 359.600 57.768,359.240 57.600,358.800 57.600 C 358.360 57.600,358.000 57.420,358.000 57.200 C 358.000 56.980,357.730 56.800,357.400 56.800 C 357.070 56.800,356.800 56.620,356.800 56.400 C 356.800 56.180,356.260 56.000,355.600 56.000 C 354.940 56.000,354.400 55.820,354.400 55.600 C 354.400 55.352,352.208 55.200,348.624 55.200 C 345.204 55.200,342.746 55.363,342.600 55.600 M352.555 64.017 C 364.603 68.525,361.213 86.754,348.319 86.794 C 345.517 86.803,342.410 85.469,340.238 83.324 C 334.680 77.837,336.188 67.565,342.982 64.634 C 343.652 64.345,344.650 63.916,345.200 63.681 C 346.836 62.983,350.199 63.136,352.555 64.017 M300.967 67.043 C 301.540 67.263,301.600 72.657,301.600 124.043 L 301.600 180.800 280.264 180.800 C 254.101 180.800,252.871 181.001,246.849 186.270 C 242.918 189.709,241.099 192.998,239.641 199.306 C 238.876 202.614,239.034 293.718,239.807 295.213 C 241.418 298.328,245.158 297.525,249.200 293.197 C 249.310 293.079,252.640 290.289,256.600 286.996 C 260.560 283.704,263.890 280.917,264.000 280.804 C 264.110 280.691,265.819 279.249,267.797 277.599 C 269.775 275.950,271.755 274.273,272.197 273.874 C 272.639 273.475,273.920 272.437,275.045 271.568 L 277.089 269.988 289.245 270.094 L 301.400 270.200 301.503 295.701 L 301.606 321.202 203.703 321.101 L 105.800 321.000 105.699 252.824 C 105.618 198.548,105.700 184.584,106.099 184.330 C 106.374 184.155,111.201 184.009,116.824 184.006 L 127.048 184.000 129.052 185.700 C 130.154 186.635,132.018 188.210,133.194 189.200 C 134.370 190.190,135.528 191.181,135.766 191.402 C 136.005 191.623,137.190 192.610,138.400 193.596 C 139.610 194.582,140.690 195.486,140.800 195.604 C 140.910 195.722,143.160 197.607,145.800 199.794 C 148.440 201.981,150.690 203.869,150.800 203.991 C 150.910 204.112,151.987 205.019,153.193 206.005 C 154.399 206.992,155.885 208.271,156.495 208.846 C 157.106 209.421,158.389 210.307,159.347 210.815 L 161.088 211.739 162.444 210.950 C 163.284 210.461,163.982 209.635,164.277 208.780 C 164.923 206.914,165.008 116.339,164.369 111.716 C 163.196 103.235,158.016 96.611,150.200 93.597 C 147.370 92.505,145.271 92.400,126.334 92.400 C 111.487 92.400,106.440 92.280,106.080 91.920 C 105.374 91.214,105.393 67.350,106.100 67.065 C 106.820 66.774,300.210 66.752,300.967 67.043 M194.429 91.412 C 191.607 92.961,191.964 96.557,195.069 97.855 C 196.913 98.625,277.053 98.608,279.200 97.836 C 281.821 96.894,282.415 93.882,280.358 91.960 L 279.115 90.800 237.258 90.839 C 203.194 90.871,195.219 90.978,194.429 91.412 M148.421 100.843 C 152.402 102.712,155.336 106.084,156.595 110.234 C 157.264 112.441,157.529 198.549,156.868 198.958 C 156.591 199.129,150.993 194.667,146.199 190.455 C 145.538 189.875,144.010 188.590,142.803 187.600 C 141.596 186.610,140.156 185.408,139.604 184.928 C 139.052 184.449,136.628 182.424,134.218 180.428 L 129.835 176.800 95.418 176.794 C 67.833 176.789,60.541 176.680,58.690 176.244 C 54.182 175.183,50.087 171.520,48.453 167.085 C 47.452 164.367,47.085 112.516,48.051 110.119 C 50.333 104.450,54.294 100.779,59.000 99.971 C 59.880 99.819,79.860 99.719,103.400 99.748 L 146.200 99.800 148.421 100.843 M193.631 111.631 C 192.040 113.222,192.018 114.706,193.560 116.358 L 194.721 117.600 236.991 117.600 L 279.262 117.600 280.431 116.431 C 282.039 114.823,282.013 113.107,280.358 111.560 L 279.115 110.400 236.988 110.400 L 194.862 110.400 193.631 111.631 M62.000 114.443 C 59.491 115.428,58.809 118.531,60.675 120.478 L 61.750 121.600 78.914 121.600 L 96.079 121.600 97.240 120.358 C 99.066 118.403,98.511 115.899,95.960 114.580 C 94.613 113.883,63.744 113.759,62.000 114.443 M346.617 129.724 C 344.560 130.975,344.000 132.271,344.000 135.781 C 344.000 140.354,345.370 141.600,350.400 141.600 C 353.957 141.600,353.980 141.593,355.387 140.187 C 357.997 137.576,357.186 131.156,354.059 129.681 C 352.760 129.068,347.646 129.097,346.617 129.724 M193.631 131.231 C 192.833 132.029,192.400 132.862,192.400 133.600 C 192.400 134.338,192.833 135.171,193.631 135.969 L 194.862 137.200 237.062 137.200 L 279.262 137.200 280.431 136.031 C 281.229 135.233,281.600 134.461,281.600 133.600 C 281.600 132.739,281.229 131.967,280.431 131.169 L 279.262 130.000 237.062 130.000 L 194.862 130.000 193.631 131.231 M61.510 134.224 C 59.253 135.448,58.906 138.168,60.769 140.031 L 61.938 141.200 102.409 141.200 L 142.879 141.200 144.040 139.958 C 145.804 138.069,145.439 135.586,143.204 134.266 C 141.582 133.308,63.272 133.267,61.510 134.224 M193.560 150.842 C 192.265 152.229,192.131 153.119,192.970 154.742 C 194.069 156.867,192.619 156.800,237.377 156.800 L 279.115 156.800 280.358 155.640 C 282.013 154.093,282.039 152.377,280.431 150.769 L 279.262 149.600 236.991 149.600 L 194.721 149.600 193.560 150.842 M60.842 154.360 C 59.146 155.945,59.118 157.980,60.769 159.631 L 61.938 160.800 102.338 160.800 L 142.738 160.800 143.969 159.569 C 144.853 158.685,145.200 157.961,145.200 157.000 C 145.200 156.039,144.853 155.315,143.969 154.431 L 142.738 153.200 102.412 153.200 L 62.085 153.200 60.842 154.360 M345.515 188.572 C 350.321 189.852,354.029 193.408,355.763 198.400 C 356.804 201.396,356.705 249.778,355.652 252.658 C 354.091 256.930,351.195 259.943,346.870 261.798 C 345.052 262.578,344.012 262.603,309.624 262.711 L 274.248 262.821 272.824 263.889 C 272.041 264.477,271.310 265.061,271.200 265.187 C 271.090 265.313,268.300 267.662,265.000 270.406 C 261.700 273.151,258.640 275.726,258.200 276.128 C 256.406 277.766,247.261 285.200,247.039 285.200 C 246.559 285.200,246.773 199.704,247.256 198.519 C 248.540 195.370,249.025 194.538,250.524 192.911 C 252.448 190.824,254.894 189.312,257.510 188.592 C 260.415 187.792,342.516 187.774,345.515 188.572 M68.763 204.500 C 66.276 206.657,65.941 212.398,68.171 214.629 C 70.208 216.665,75.694 216.626,77.760 214.560 C 79.962 212.358,79.962 207.242,77.760 205.040 C 75.892 203.172,70.656 202.858,68.763 204.500 M127.160 232.842 L 126.000 234.085 126.000 266.400 L 126.000 298.715 127.160 299.958 L 128.321 301.200 160.599 301.200 C 195.924 301.200,194.366 301.303,195.505 298.890 C 196.224 297.367,196.224 235.433,195.505 233.910 C 194.366 231.497,195.924 231.600,160.599 231.600 L 128.321 231.600 127.160 232.842 M188.400 266.400 L 188.400 294.000 161.043 294.000 C 136.466 294.000,133.661 293.936,133.443 293.367 C 133.126 292.541,133.126 240.259,133.443 239.433 C 133.661 238.864,136.466 238.800,161.043 238.800 L 188.400 238.800 188.400 266.400 M37.040 255.840 C 35.622 257.258,35.600 257.330,35.600 260.540 C 35.601 265.333,37.054 266.800,41.800 266.800 C 46.546 266.800,47.999 265.333,48.000 260.540 C 48.000 255.737,46.650 254.400,41.800 254.400 C 38.521 254.400,38.462 254.418,37.040 255.840 M49.000 282.000 C 48.864 282.220,48.223 282.400,47.576 282.400 C 46.929 282.400,46.400 282.580,46.400 282.800 C 46.400 283.020,46.040 283.200,45.600 283.200 C 45.160 283.200,44.800 283.380,44.800 283.600 C 44.800 283.820,44.440 284.000,44.000 284.000 C 43.560 284.000,43.200 284.180,43.200 284.400 C 43.200 284.620,42.970 284.800,42.688 284.800 C 42.407 284.800,41.917 285.160,41.600 285.600 C 41.283 286.040,40.788 286.400,40.501 286.400 C 39.822 286.400,36.400 289.822,36.400 290.501 C 36.400 290.788,36.040 291.283,35.600 291.600 C 35.160 291.917,34.800 292.407,34.800 292.688 C 34.800 292.970,34.620 293.200,34.400 293.200 C 34.180 293.200,34.000 293.560,34.000 294.000 C 34.000 294.440,33.820 294.800,33.600 294.800 C 33.380 294.800,33.200 295.160,33.200 295.600 C 33.200 296.040,33.020 296.400,32.800 296.400 C 32.580 296.400,32.400 296.929,32.400 297.576 C 32.400 298.223,32.220 298.864,32.000 299.000 C 31.760 299.148,31.600 301.804,31.600 305.624 C 31.600 309.608,31.750 312.000,32.000 312.000 C 32.220 312.000,32.400 312.540,32.400 313.200 C 32.400 313.860,32.580 314.400,32.800 314.400 C 33.020 314.400,33.200 314.760,33.200 315.200 C 33.200 315.640,33.380 316.000,33.600 316.000 C 33.820 316.000,34.000 316.360,34.000 316.800 C 34.000 317.240,34.180 317.600,34.400 317.600 C 34.620 317.600,34.800 317.920,34.800 318.312 C 34.800 318.703,35.160 319.283,35.600 319.600 C 36.040 319.917,36.400 320.385,36.400 320.640 C 36.400 321.247,40.174 324.674,41.202 325.001 C 41.641 325.140,42.000 325.422,42.000 325.627 C 42.000 325.832,42.270 326.000,42.600 326.000 C 42.930 326.000,43.200 326.180,43.200 326.400 C 43.200 326.620,43.560 326.800,44.000 326.800 C 44.440 326.800,44.800 326.980,44.800 327.200 C 44.800 327.420,45.160 327.600,45.600 327.600 C 46.040 327.600,46.400 327.780,46.400 328.000 C 46.400 328.220,46.940 328.400,47.600 328.400 C 48.260 328.400,48.800 328.580,48.800 328.800 C 48.800 329.051,51.267 329.200,55.400 329.200 C 59.533 329.200,62.000 329.051,62.000 328.800 C 62.000 328.580,62.540 328.400,63.200 328.400 C 63.860 328.400,64.400 328.220,64.400 328.000 C 64.400 327.780,64.760 327.600,65.200 327.600 C 65.640 327.600,66.000 327.420,66.000 327.200 C 66.000 326.980,66.360 326.800,66.800 326.800 C 67.240 326.800,67.600 326.620,67.600 326.400 C 67.600 326.180,67.960 326.000,68.400 326.000 C 68.840 326.000,69.200 325.865,69.201 325.700 C 69.201 325.535,70.016 324.885,71.011 324.256 C 72.007 323.628,73.391 322.278,74.087 321.256 C 74.784 320.235,75.499 319.340,75.677 319.267 C 75.855 319.193,76.000 318.788,76.000 318.367 C 76.000 317.945,76.180 317.600,76.400 317.600 C 76.620 317.600,76.800 317.240,76.800 316.800 C 76.800 316.360,76.980 316.000,77.200 316.000 C 77.420 316.000,77.600 315.640,77.600 315.200 C 77.600 314.760,77.780 314.400,78.000 314.400 C 78.220 314.400,78.400 313.860,78.400 313.200 C 78.400 312.540,78.580 312.000,78.800 312.000 C 79.051 312.000,79.200 309.533,79.200 305.400 C 79.200 301.267,79.051 298.800,78.800 298.800 C 78.580 298.800,78.400 298.260,78.400 297.600 C 78.400 296.940,78.220 296.400,78.000 296.400 C 77.780 296.400,77.600 296.040,77.600 295.600 C 77.600 295.160,77.420 294.800,77.200 294.800 C 76.980 294.800,76.800 294.440,76.800 294.000 C 76.800 293.560,76.620 293.200,76.400 293.200 C 76.180 293.200,76.000 292.930,76.000 292.600 C 76.000 292.270,75.832 292.000,75.627 292.000 C 75.422 292.000,75.140 291.641,75.001 291.202 C 74.674 290.174,71.247 286.400,70.640 286.400 C 70.385 286.400,69.917 286.040,69.600 285.600 C 69.283 285.160,68.703 284.800,68.312 284.800 C 67.920 284.800,67.600 284.620,67.600 284.400 C 67.600 284.180,67.240 284.000,66.800 284.000 C 66.360 284.000,66.000 283.820,66.000 283.600 C 66.000 283.380,65.640 283.200,65.200 283.200 C 64.760 283.200,64.400 283.020,64.400 282.800 C 64.400 282.580,63.860 282.400,63.200 282.400 C 62.540 282.400,62.000 282.220,62.000 282.000 C 62.000 281.750,59.608 281.600,55.624 281.600 C 51.804 281.600,49.148 281.760,49.000 282.000 M58.210 290.036 C 64.076 291.120,68.465 295.002,70.364 300.786 C 74.266 312.671,62.671 324.266,50.786 320.364 C 33.956 314.839,37.404 290.985,55.227 289.647 C 55.571 289.621,56.914 289.796,58.210 290.036 M345.600 294.800 L 344.000 296.400 344.000 299.600 L 344.000 302.800 345.600 304.400 L 347.200 306.000 350.400 306.000 L 353.600 306.000 355.200 304.400 L 356.800 302.800 356.800 299.600 L 356.800 296.400 355.200 294.800 L 353.600 293.200 350.400 293.200 L 347.200 293.200 345.600 294.800 M301.000 341.200 C 301.000 352.917,300.963 353.511,300.066 356.200 C 296.898 365.696,289.806 372.445,280.493 374.827 C 276.353 375.886,131.720 376.041,127.267 374.991 C 118.146 372.841,110.657 365.993,107.468 356.887 L 106.247 353.400 106.087 341.683 C 106.000 335.238,106.028 329.703,106.152 329.382 C 106.347 328.872,118.712 328.811,203.688 328.899 L 301.000 329.000 301.000 341.200 M198.400 337.675 C 183.966 343.143,185.126 363.798,200.077 367.531 C 214.998 371.257,225.548 352.473,214.693 341.507 C 210.318 337.087,203.923 335.583,198.400 337.675 M206.451 344.976 C 208.312 345.771,209.952 347.410,210.837 349.359 C 214.124 356.597,204.873 363.466,198.695 358.374 C 192.020 352.872,198.546 341.599,206.451 344.976 M68.763 352.900 C 65.946 355.343,65.946 361.057,68.763 363.500 C 70.656 365.142,75.892 364.828,77.760 362.960 C 79.962 360.758,79.962 355.642,77.760 353.440 C 75.892 351.572,70.656 351.258,68.763 352.900 " stroke="none" fill-rule="evenodd" fill="#040404" style="fill-rule: evenodd;"/>
    <path id="path4" d="M127.123 25.019 C 114.300 28.129,106.563 38.387,106.097 52.900 L 105.895 59.200 203.599 59.200 L 301.304 59.200 301.096 52.700 C 300.635 38.265,293.285 28.444,280.493 25.173 C 276.509 24.154,131.292 24.008,127.123 25.019 M218.081 41.219 C 219.668 42.807,219.508 45.269,217.725 46.696 C 215.956 48.111,190.608 48.115,189.320 46.700 C 187.829 45.064,187.498 44.068,187.981 42.672 C 188.908 39.992,188.751 40.019,203.531 40.009 L 216.862 40.000 218.081 41.219 M345.200 63.681 C 344.650 63.916,343.652 64.345,342.982 64.634 C 340.088 65.883,336.752 70.653,336.851 73.400 C 336.890 74.448,336.955 74.373,337.371 72.800 C 339.859 63.388,350.837 60.508,356.960 67.662 C 357.752 68.587,358.400 69.582,358.400 69.872 C 358.400 70.162,358.585 70.400,358.810 70.400 C 359.500 70.400,358.058 68.056,356.349 66.396 C 353.597 63.726,348.181 62.407,345.200 63.681 M106.100 67.065 C 105.393 67.350,105.374 91.214,106.080 91.920 C 106.440 92.280,111.487 92.400,126.334 92.400 C 148.009 92.400,147.872 92.387,152.952 94.853 C 156.905 96.770,161.357 101.775,163.015 106.164 C 163.424 107.244,163.827 107.918,163.913 107.662 C 164.620 105.539,158.219 97.314,154.000 94.925 C 149.053 92.124,149.938 92.221,127.200 92.000 L 106.600 91.800 106.494 79.499 L 106.388 67.198 203.694 67.299 L 301.000 67.400 301.203 111.000 L 301.405 154.600 301.503 110.943 C 301.591 71.445,301.540 67.262,300.967 67.043 C 300.210 66.752,106.820 66.774,106.100 67.065 M359.234 71.600 C 359.222 72.150,359.387 72.870,359.600 73.200 C 360.109 73.987,360.109 72.584,359.600 71.400 C 359.285 70.667,359.254 70.684,359.234 71.600 M336.851 76.600 C 336.753 79.303,340.144 84.145,342.991 85.368 C 345.956 86.642,346.545 86.800,348.319 86.794 C 351.687 86.784,355.691 84.901,357.463 82.495 C 358.741 80.761,359.282 79.600,358.814 79.600 C 358.586 79.600,358.400 79.808,358.400 80.062 C 358.400 80.768,356.550 83.039,355.180 84.014 C 348.290 88.920,339.589 85.591,337.371 77.200 C 336.955 75.627,336.890 75.552,336.851 76.600 M359.488 76.933 C 359.330 77.336,359.211 78.056,359.225 78.533 C 359.249 79.356,359.271 79.350,359.640 78.425 C 359.854 77.889,359.973 77.169,359.903 76.825 C 359.799 76.311,359.725 76.330,359.488 76.933 M193.413 91.813 C 191.076 94.151,192.280 98.434,195.260 98.384 C 196.114 98.370,196.088 98.320,194.981 97.838 C 192.778 96.878,191.901 94.750,192.938 92.882 C 194.141 90.715,192.318 90.800,237.403 90.800 L 279.115 90.800 280.358 91.960 C 282.415 93.882,281.821 96.894,279.200 97.836 C 277.941 98.289,277.903 98.342,278.825 98.370 C 281.343 98.444,283.002 94.258,281.291 92.147 C 279.847 90.364,280.753 90.400,236.840 90.400 L 194.827 90.400 193.413 91.813 M70.500 99.900 C 76.165 99.962,85.435 99.962,91.100 99.900 C 96.765 99.837,92.130 99.786,80.800 99.786 C 69.470 99.786,64.835 99.837,70.500 99.900 M113.528 99.900 C 119.318 99.962,128.678 99.962,134.328 99.900 C 139.978 99.837,135.240 99.786,123.800 99.786 C 112.360 99.786,107.738 99.837,113.528 99.900 M56.066 100.880 C 52.507 102.606,49.837 105.682,48.051 110.119 C 47.063 112.572,47.495 164.617,48.525 167.306 C 50.147 171.538,54.828 175.654,58.600 176.165 L 60.200 176.382 58.800 175.949 C 54.501 174.622,50.968 171.687,49.235 168.000 L 48.200 165.800 48.089 139.040 C 47.966 109.466,47.929 109.974,50.497 106.169 C 52.051 103.865,54.926 101.719,57.748 100.756 C 59.140 100.281,59.478 100.053,58.800 100.048 C 58.250 100.044,57.020 100.418,56.066 100.880 M145.600 100.400 C 147.142 100.894,147.964 100.894,147.200 100.400 C 146.870 100.187,146.150 100.027,145.600 100.046 L 144.600 100.080 145.600 100.400 M148.000 100.981 C 148.000 101.081,148.642 101.467,149.427 101.839 C 152.466 103.282,155.261 106.996,156.355 111.046 C 156.669 112.207,156.800 125.415,156.800 155.775 L 156.800 198.857 153.115 195.729 C 151.088 194.008,149.088 192.330,148.670 192.000 C 148.252 191.670,147.706 191.210,147.455 190.978 C 147.205 190.745,144.210 188.235,140.800 185.400 C 137.390 182.565,134.510 180.142,134.400 180.017 C 134.290 179.892,133.274 179.025,132.142 178.092 L 130.084 176.396 95.142 176.500 L 60.200 176.604 95.018 176.702 L 129.835 176.800 134.218 180.428 C 136.628 182.424,139.052 184.449,139.604 184.928 C 140.156 185.408,141.596 186.610,142.803 187.600 C 144.010 188.590,145.538 189.875,146.199 190.455 C 150.993 194.667,156.591 199.129,156.868 198.958 C 157.529 198.549,157.264 112.441,156.595 110.234 C 155.908 107.969,154.132 105.050,152.516 103.531 C 150.808 101.925,148.000 100.340,148.000 100.981 M164.058 109.200 C 164.059 109.750,164.203 111.010,164.380 112.000 L 164.700 113.800 164.722 111.800 C 164.734 110.700,164.589 109.440,164.400 109.000 C 164.087 108.271,164.056 108.289,164.058 109.200 M193.360 111.360 C 191.445 113.275,191.593 115.546,193.747 117.291 C 194.543 117.936,197.437 117.983,237.131 117.991 L 279.662 118.000 280.831 116.831 C 282.516 115.145,282.486 112.775,280.758 111.160 L 279.515 110.000 237.118 110.000 L 194.720 110.000 193.360 111.360 M280.358 111.560 C 282.013 113.107,282.039 114.823,280.431 116.431 L 279.262 117.600 236.991 117.600 L 194.721 117.600 193.560 116.358 C 192.018 114.706,192.040 113.222,193.631 111.631 L 194.862 110.400 236.988 110.400 L 279.115 110.400 280.358 111.560 M60.236 115.231 C 58.750 116.996,58.804 119.266,60.369 120.831 L 61.538 122.000 78.915 122.000 L 96.291 122.000 97.354 120.937 C 99.651 118.640,98.490 113.945,95.642 114.016 C 95.229 114.026,95.372 114.234,96.043 114.599 C 98.524 115.947,99.040 118.430,97.240 120.358 L 96.079 121.600 78.914 121.600 L 61.750 121.600 60.675 120.478 C 58.809 118.531,59.491 115.428,62.000 114.443 C 62.929 114.079,62.938 114.049,62.136 114.025 C 61.640 114.011,60.830 114.525,60.236 115.231 M193.747 130.309 C 191.324 132.271,191.613 135.948,194.285 137.166 C 194.951 137.469,207.930 137.600,237.377 137.600 L 279.515 137.600 280.758 136.440 C 282.486 134.825,282.516 132.455,280.831 130.769 L 279.662 129.600 237.131 129.609 C 197.437 129.617,194.543 129.664,193.747 130.309 M280.431 131.169 C 281.229 131.967,281.600 132.739,281.600 133.600 C 281.600 134.461,281.229 135.233,280.431 136.031 L 279.262 137.200 237.062 137.200 L 194.862 137.200 193.631 135.969 C 192.833 135.171,192.400 134.338,192.400 133.600 C 192.400 132.862,192.833 132.029,193.631 131.231 L 194.862 130.000 237.062 130.000 L 279.262 130.000 280.431 131.169 M61.438 133.811 C 58.801 135.186,58.328 138.267,60.431 140.369 L 61.662 141.600 102.331 141.591 C 146.945 141.581,143.918 141.741,145.153 139.326 C 146.184 137.311,144.606 133.574,142.740 133.611 C 142.443 133.616,142.681 133.920,143.270 134.285 C 145.449 135.637,145.782 138.092,144.040 139.958 L 142.879 141.200 102.409 141.200 L 61.938 141.200 60.769 140.031 C 58.986 138.247,59.246 135.488,61.309 134.309 C 62.007 133.910,70.852 133.756,102.200 133.596 L 142.200 133.392 102.400 133.299 C 67.501 133.216,62.457 133.280,61.438 133.811 M193.747 149.909 C 191.593 151.654,191.445 153.925,193.360 155.840 L 194.720 157.200 237.118 157.200 L 279.515 157.200 280.758 156.040 C 282.486 154.425,282.516 152.055,280.831 150.369 L 279.662 149.200 237.131 149.209 C 197.437 149.217,194.543 149.264,193.747 149.909 M280.431 150.769 C 282.039 152.377,282.013 154.093,280.358 155.640 L 279.115 156.800 237.377 156.800 C 192.619 156.800,194.069 156.867,192.970 154.742 C 192.131 153.119,192.265 152.229,193.560 150.842 L 194.721 149.600 236.991 149.600 L 279.262 149.600 280.431 150.769 M61.189 153.482 C 58.738 155.171,58.413 157.951,60.431 159.969 L 61.662 161.200 102.271 161.200 L 142.880 161.200 144.240 159.840 C 145.297 158.783,145.600 158.150,145.600 157.000 C 145.600 155.850,145.297 155.217,144.240 154.160 L 142.880 152.800 102.529 152.800 C 65.167 152.800,62.105 152.850,61.189 153.482 M143.969 154.431 C 144.853 155.315,145.200 156.039,145.200 157.000 C 145.200 157.961,144.853 158.685,143.969 159.569 L 142.738 160.800 102.338 160.800 L 61.938 160.800 60.769 159.631 C 59.118 157.980,59.146 155.945,60.842 154.360 L 62.085 153.200 102.412 153.200 L 142.738 153.200 143.969 154.431 M279.000 180.406 C 266.680 180.528,256.150 180.772,255.600 180.947 C 251.133 182.374,247.885 184.376,244.877 187.556 C 242.329 190.249,240.203 194.382,239.402 198.200 C 238.656 201.752,238.494 293.004,239.230 295.114 C 239.661 296.350,241.122 297.614,242.086 297.584 C 242.369 297.575,242.107 297.301,241.505 296.974 C 239.071 295.653,239.200 298.416,239.200 247.626 C 239.200 215.255,239.333 200.635,239.641 199.306 C 241.099 192.998,242.918 189.709,246.849 186.270 C 252.871 181.001,254.101 180.800,280.264 180.800 C 294.221 180.800,301.600 180.662,301.600 180.400 C 301.600 180.180,301.555 180.041,301.500 180.092 C 301.445 180.142,291.320 180.284,279.000 180.406 M106.099 184.330 C 105.700 184.584,105.618 198.548,105.699 252.824 L 105.800 321.000 203.703 321.101 L 301.606 321.202 301.503 295.701 L 301.400 270.200 289.245 270.094 L 277.089 269.988 275.045 271.568 C 273.920 272.437,272.639 273.475,272.197 273.874 C 271.755 274.273,269.775 275.950,267.797 277.599 C 265.819 279.249,264.110 280.691,264.000 280.804 C 263.890 280.917,260.560 283.704,256.600 286.996 C 252.640 290.289,249.310 293.079,249.200 293.197 C 248.114 294.359,244.575 296.937,243.705 297.199 L 242.600 297.531 243.626 297.566 C 244.539 297.596,250.883 292.708,257.000 287.261 C 257.660 286.673,261.440 283.505,265.400 280.221 C 269.360 276.936,272.690 274.145,272.800 274.019 C 272.910 273.892,273.925 273.026,275.056 272.095 L 277.111 270.400 289.156 270.400 L 301.200 270.400 301.200 295.600 L 301.200 320.800 203.800 320.800 L 106.400 320.800 106.400 252.600 L 106.400 184.400 116.632 184.400 L 126.863 184.400 129.332 186.500 C 130.689 187.655,131.890 188.693,132.000 188.807 C 132.110 188.921,134.990 191.341,138.400 194.186 C 149.591 203.520,154.197 207.389,154.400 207.625 C 158.524 212.427,164.876 212.917,164.777 208.425 C 164.757 207.508,164.705 207.545,164.277 208.780 C 163.982 209.635,163.284 210.461,162.444 210.950 L 161.088 211.739 159.347 210.815 C 158.389 210.307,157.106 209.421,156.495 208.846 C 155.885 208.271,154.399 206.992,153.193 206.005 C 151.987 205.019,150.910 204.112,150.800 203.991 C 150.690 203.869,148.440 201.981,145.800 199.794 C 143.160 197.607,140.910 195.722,140.800 195.604 C 140.690 195.486,139.610 194.582,138.400 193.596 C 137.190 192.610,136.005 191.623,135.766 191.402 C 135.528 191.181,134.370 190.190,133.194 189.200 C 132.018 188.210,130.154 186.635,129.052 185.700 L 127.048 184.000 116.824 184.006 C 111.201 184.009,106.374 184.155,106.099 184.330 M280.300 188.300 C 292.015 188.359,311.185 188.359,322.900 188.300 C 334.615 188.241,325.030 188.193,301.600 188.193 C 278.170 188.193,268.585 188.241,280.300 188.300 M345.854 188.974 C 346.764 189.276,347.889 189.726,348.354 189.975 C 348.819 190.224,349.200 190.336,349.200 190.224 C 349.200 189.848,347.013 188.899,345.600 188.661 C 344.292 188.442,344.309 188.463,345.854 188.974 M255.200 189.400 C 253.894 190.147,254.351 190.155,256.054 189.416 C 256.794 189.094,257.130 188.831,256.800 188.830 C 256.470 188.829,255.750 189.086,255.200 189.400 M350.969 191.659 C 351.630 192.242,352.598 193.232,353.121 193.859 C 353.643 194.487,353.891 194.640,353.670 194.200 C 353.265 193.392,351.518 191.679,350.384 190.980 C 350.046 190.771,350.309 191.077,350.969 191.659 M250.440 193.032 C 249.318 194.260,248.400 195.454,248.400 195.686 C 248.400 195.918,248.790 195.589,249.266 194.954 C 249.743 194.319,250.769 193.125,251.548 192.300 C 252.326 191.475,252.854 190.800,252.721 190.800 C 252.589 190.800,251.562 191.805,250.440 193.032 M354.678 196.595 C 355.044 197.362,355.414 197.919,355.501 197.832 C 355.684 197.649,354.470 195.200,354.196 195.200 C 354.095 195.200,354.312 195.828,354.678 196.595 M247.049 199.015 C 246.912 199.373,246.821 200.146,246.846 200.733 C 246.880 201.532,246.970 201.398,247.204 200.200 C 247.535 198.500,247.462 197.940,247.049 199.015 M355.800 225.400 C 355.800 239.988,355.932 251.716,356.094 251.462 C 356.256 251.208,356.388 239.480,356.388 225.400 C 356.388 211.320,356.256 199.592,356.094 199.338 C 355.932 199.084,355.800 210.812,355.800 225.400 M127.347 231.909 C 125.579 233.341,125.600 232.929,125.600 266.400 C 125.600 289.219,125.729 298.704,126.047 299.326 C 127.273 301.724,125.083 301.581,160.894 301.591 L 193.587 301.600 194.851 300.471 C 195.597 299.804,196.020 299.109,195.884 298.771 C 195.713 298.346,195.588 298.413,195.398 299.031 C 194.712 301.262,195.704 301.200,160.599 301.200 L 128.321 301.200 127.160 299.958 L 126.000 298.715 126.000 266.400 L 126.000 234.085 127.160 232.842 L 128.321 231.600 160.599 231.600 C 195.704 231.600,194.712 231.538,195.398 233.769 C 195.588 234.387,195.713 234.454,195.884 234.029 C 196.020 233.691,195.597 232.996,194.851 232.329 L 193.587 231.200 160.894 231.209 C 130.521 231.217,128.139 231.267,127.347 231.909 M196.190 266.400 C 196.190 283.670,196.240 290.735,196.300 282.100 C 196.360 273.465,196.360 259.335,196.300 250.700 C 196.240 242.065,196.190 249.130,196.190 266.400 M160.700 239.100 L 188.000 239.206 188.000 266.400 L 188.000 293.594 160.700 293.700 L 133.400 293.806 160.900 293.903 L 188.400 294.000 188.400 266.400 L 188.400 238.800 160.900 238.897 L 133.400 238.994 160.700 239.100 M133.389 266.400 C 133.389 281.250,133.439 287.325,133.500 279.900 C 133.561 272.475,133.561 260.325,133.500 252.900 C 133.439 245.475,133.389 251.550,133.389 266.400 M354.678 254.205 C 354.312 254.972,354.095 255.600,354.196 255.600 C 354.470 255.600,355.684 253.151,355.501 252.968 C 355.414 252.881,355.044 253.438,354.678 254.205 M352.358 257.851 C 352.061 258.209,350.916 259.109,349.814 259.851 C 348.712 260.593,347.956 261.200,348.133 261.200 C 348.619 261.200,351.694 259.011,352.562 258.047 C 352.981 257.581,353.228 257.200,353.111 257.200 C 352.994 257.200,352.655 257.493,352.358 257.851 M345.000 262.000 C 344.496 262.217,344.422 262.344,344.800 262.344 C 345.130 262.344,345.760 262.189,346.200 262.000 C 346.704 261.783,346.778 261.656,346.400 261.656 C 346.070 261.656,345.440 261.811,345.000 262.000 M272.785 263.629 L 271.400 264.858 272.835 263.831 L 274.270 262.804 309.035 262.700 L 343.800 262.596 308.985 262.498 L 274.170 262.400 272.785 263.629 M267.996 267.451 C 266.348 268.876,264.730 270.344,264.400 270.713 C 263.774 271.412,264.124 271.137,268.400 267.577 C 269.830 266.386,271.075 265.365,271.167 265.306 C 271.258 265.248,271.256 265.123,271.162 265.029 C 271.068 264.935,269.643 266.025,267.996 267.451 M261.200 273.257 L 259.000 275.289 261.099 273.608 C 262.939 272.134,263.913 271.173,263.524 271.213 C 263.456 271.220,262.410 272.140,261.200 273.257 M255.400 278.030 C 253.860 279.351,252.240 280.818,251.800 281.289 C 251.360 281.760,252.170 281.173,253.600 279.986 C 258.168 276.192,258.834 275.600,258.514 275.613 C 258.341 275.621,256.940 276.708,255.400 278.030 M248.004 284.196 C 247.732 284.523,247.350 284.693,247.155 284.572 C 246.960 284.451,246.800 284.543,246.800 284.776 C 246.800 285.439,247.407 285.276,248.200 284.400 C 248.598 283.960,248.828 283.600,248.711 283.600 C 248.594 283.600,248.276 283.868,248.004 284.196 M54.900 289.876 C 55.285 289.976,55.915 289.976,56.300 289.876 C 56.685 289.775,56.370 289.693,55.600 289.693 C 54.830 289.693,54.515 289.775,54.900 289.876 M49.820 290.847 C 45.619 292.550,42.487 295.719,40.817 299.956 C 39.951 302.155,39.671 304.328,40.400 303.200 C 40.613 302.870,40.791 302.193,40.794 301.695 C 40.797 301.197,40.959 300.477,41.153 300.095 C 41.348 299.713,41.753 298.860,42.053 298.200 C 42.759 296.650,46.650 292.759,48.200 292.053 C 48.860 291.753,49.713 291.348,50.095 291.153 C 50.477 290.959,51.197 290.797,51.695 290.794 C 52.193 290.791,52.870 290.613,53.200 290.400 C 54.319 289.677,51.924 289.993,49.820 290.847 M57.800 290.365 C 58.240 290.573,58.988 290.756,59.462 290.772 C 60.849 290.817,63.643 292.453,65.829 294.500 C 78.709 306.560,64.094 326.838,48.300 318.822 C 45.048 317.172,40.853 311.956,40.772 309.462 C 40.756 308.988,40.573 308.240,40.365 307.800 C 40.090 307.217,40.046 307.471,40.203 308.733 C 41.680 320.544,57.602 325.205,66.404 316.404 C 75.205 307.602,70.544 291.680,58.733 290.203 C 57.471 290.046,57.217 290.090,57.800 290.365 M39.693 305.600 C 39.693 306.370,39.775 306.685,39.876 306.300 C 39.976 305.915,39.976 305.285,39.876 304.900 C 39.775 304.515,39.693 304.830,39.693 305.600 M106.152 329.382 C 106.028 329.703,106.000 335.238,106.087 341.683 L 106.247 353.400 107.468 356.887 C 110.657 365.993,118.146 372.841,127.267 374.991 C 131.720 376.041,276.353 375.886,280.493 374.827 C 289.806 372.445,296.898 365.696,300.066 356.200 C 300.963 353.511,301.000 352.917,301.000 341.200 L 301.000 329.000 203.688 328.899 C 118.712 328.811,106.347 328.872,106.152 329.382 M207.640 337.234 C 221.314 341.597,223.330 359.723,210.859 366.170 C 196.099 373.800,181.309 355.866,191.425 342.603 C 194.846 338.117,202.483 335.588,207.640 337.234 M200.800 345.038 C 193.991 347.987,194.579 358.803,201.602 359.774 L 203.000 359.968 201.500 359.513 C 200.675 359.263,200.000 358.911,200.000 358.729 C 200.000 358.548,199.807 358.400,199.571 358.400 C 198.209 358.400,196.400 354.911,196.401 352.288 C 196.406 345.930,203.364 342.752,208.476 346.774 C 212.641 350.051,210.947 358.351,205.906 359.359 C 205.227 359.495,204.779 359.712,204.909 359.843 C 206.013 360.946,210.430 357.198,211.171 354.528 C 212.912 348.260,206.631 342.512,200.800 345.038 " stroke="none" fill-rule="evenodd" fill="#4b5b7b" style="fill-rule: evenodd;"/>
  </g>
</svg>